<svg xmlns="http://www.w3.org/2000/svg" width="934.453" height="131.563" viewBox="0 0 934.453 131.563">
  <path id="bbncreative-logo" data-name="bbncreative logo" d="M42.344-25.469A14.4,14.4,0,0,0,44.57-22.3a19.378,19.378,0,0,0,3.359,2.93,18.108,18.108,0,0,0,4.18,2.148,13.665,13.665,0,0,0,4.688.82,9.434,9.434,0,0,0,6.328-2.617,23.089,23.089,0,0,0,5.2-7.031A42.8,42.8,0,0,0,71.8-36.133a54.409,54.409,0,0,0,1.25-11.758A36.615,36.615,0,0,0,72.383-55a19.666,19.666,0,0,0-2.07-5.859,11.422,11.422,0,0,0-3.633-3.984,9.425,9.425,0,0,0-5.352-1.484,15.8,15.8,0,0,0-9.3,2.969,26.073,26.073,0,0,0-7.109,7.578ZM13.281,3.828a8.748,8.748,0,0,1-1.719.234q-2.5,0-2.5-2.969Q9.063.7,9.1.313t.117-.859l9.063-110.547a2.846,2.846,0,0,1,.039-.469,2.455,2.455,0,0,0,.039-.391,3.365,3.365,0,0,0-.039-.547,2.455,2.455,0,0,1-.039-.391,1.411,1.411,0,0,1,.508-1.133A8.074,8.074,0,0,1,21.406-115l21.953-5.234a13.122,13.122,0,0,0,2.266-.7,7.52,7.52,0,0,1,2.734-.547,4.079,4.079,0,0,1,1.914.469,1.835,1.835,0,0,1,.9,1.8,1.284,1.284,0,0,1-.039.313,1.284,1.284,0,0,0-.039.313q-.078.391-.391,3.438t-.7,7.383q-.391,4.336-.859,9.3t-.859,9.3q-.391,4.336-.7,7.383t-.391,3.438a71.506,71.506,0,0,1,11.8-6.289,31.472,31.472,0,0,1,12.188-2.539,27.753,27.753,0,0,1,13.906,3.32,29.147,29.147,0,0,1,9.688,8.828,38.881,38.881,0,0,1,5.664,12.7A59.741,59.741,0,0,1,102.266-47.5a68.885,68.885,0,0,1-1.133,12.383A68.676,68.676,0,0,1,97.852-23.2a55.69,55.69,0,0,1-5.391,10.7,41.523,41.523,0,0,1-7.422,8.672A32.952,32.952,0,0,1,75.7,1.953,29.221,29.221,0,0,1,64.531,4.063,27.811,27.811,0,0,1,51.25.859,48.156,48.156,0,0,1,40.078-7.422q-.156,1.875-.234,2.969a3.208,3.208,0,0,1-.508,1.68,2.916,2.916,0,0,1-1.289.938,17.565,17.565,0,0,1-2.578.742q-.859.234-3.008.742T27.3.82q-3.008.664-6.641,1.445T13.281,3.828Zm132.109-29.3a14.4,14.4,0,0,0,2.227,3.164,19.378,19.378,0,0,0,3.359,2.93,18.108,18.108,0,0,0,4.18,2.148,13.665,13.665,0,0,0,4.688.82,9.434,9.434,0,0,0,6.328-2.617,23.089,23.089,0,0,0,5.2-7.031,42.8,42.8,0,0,0,3.477-10.078,54.409,54.409,0,0,0,1.25-11.758A36.616,36.616,0,0,0,175.43-55a19.665,19.665,0,0,0-2.07-5.859,11.422,11.422,0,0,0-3.633-3.984,9.425,9.425,0,0,0-5.352-1.484,15.8,15.8,0,0,0-9.3,2.969,26.073,26.073,0,0,0-7.109,7.578Zm-29.062,29.3a8.748,8.748,0,0,1-1.719.234q-2.5,0-2.5-2.969,0-.391.039-.781t.117-.859l9.063-110.547a2.847,2.847,0,0,1,.039-.469,2.456,2.456,0,0,0,.039-.391,3.365,3.365,0,0,0-.039-.547,2.456,2.456,0,0,1-.039-.391,1.411,1.411,0,0,1,.508-1.133,8.074,8.074,0,0,1,2.617-.977l21.953-5.234a13.122,13.122,0,0,0,2.266-.7,7.52,7.52,0,0,1,2.734-.547,4.079,4.079,0,0,1,1.914.469,1.835,1.835,0,0,1,.9,1.8,1.284,1.284,0,0,1-.039.313,1.284,1.284,0,0,0-.039.313q-.078.391-.391,3.438t-.7,7.383q-.391,4.336-.859,9.3t-.859,9.3q-.391,4.336-.7,7.383t-.391,3.438a71.506,71.506,0,0,1,11.8-6.289,31.472,31.472,0,0,1,12.188-2.539,27.753,27.753,0,0,1,13.906,3.32,29.147,29.147,0,0,1,9.688,8.828,38.881,38.881,0,0,1,5.664,12.7A59.741,59.741,0,0,1,205.313-47.5a68.886,68.886,0,0,1-1.133,12.383A68.675,68.675,0,0,1,200.9-23.2a55.691,55.691,0,0,1-5.391,10.7,41.523,41.523,0,0,1-7.422,8.672,32.952,32.952,0,0,1-9.336,5.781,29.221,29.221,0,0,1-11.172,2.109A27.811,27.811,0,0,1,154.3.859a48.156,48.156,0,0,1-11.172-8.281q-.156,1.875-.234,2.969a3.208,3.208,0,0,1-.508,1.68,2.915,2.915,0,0,1-1.289.938,17.565,17.565,0,0,1-2.578.742q-.859.234-3.008.742T130.352.82q-3.008.664-6.641,1.445T116.328,3.828ZM280.313,2.813q-.859.234-2.266.742a8.027,8.027,0,0,1-2.734.508,3.37,3.37,0,0,1-1.914-.547,2.085,2.085,0,0,1-.82-1.875V1.172q.469-4.219.781-7.148t.586-5.312q.273-2.383.469-4.766t.508-5.547q.313-3.164.742-7.5t1.055-10.82q.391-3.984.7-8.125t.313-7.656a24.99,24.99,0,0,0-.352-4.336,9.614,9.614,0,0,0-1.25-3.437,5.988,5.988,0,0,0-2.461-2.227,8.9,8.9,0,0,0-3.984-.781,22.145,22.145,0,0,0-4.961.781,24.3,24.3,0,0,0-6.289,2.578,20.3,20.3,0,0,0-5.547,4.727,12.444,12.444,0,0,0-2.734,7.227q-.469,5.781-.859,9.883t-.7,6.953q-.312,2.852-.508,4.648t-.273,3.047q-.078.313-.234,1.719t-.352,3.359q-.2,1.953-.391,4.141t-.391,4.141q-.2,1.953-.312,3.359T246.016-8.2q0,.625.039,1.055t.039.82a1.273,1.273,0,0,1-.586,1.055,9.307,9.307,0,0,1-2.617.977l-20.7,7.109q-.859.312-2.266.781a8.624,8.624,0,0,1-2.734.469,3.37,3.37,0,0,1-1.914-.547,2.085,2.085,0,0,1-.82-1.875L221.563-78.2a16.5,16.5,0,0,1,.586-3.555,2.175,2.175,0,0,1,1.758-1.289q7.109-1.406,14.609-2.852a127.572,127.572,0,0,0,14.609-3.711q.625,0,.742.2a1.162,1.162,0,0,1,.117.586,4.143,4.143,0,0,1-.039.469q-.039.313-.234,1.406t-.547,3.32q-.352,2.227-.977,6.211A80.967,80.967,0,0,1,262.3-82.461a68.564,68.564,0,0,1,8.906-2.969,52.788,52.788,0,0,1,7.852-1.406q3.672-.352,6.875-.352,11.016,0,16.016,6.68t5,20.039q0,1.875-.078,3.867t-.312,4.1l-3.594,33.594q-.391,3.281-.469,6.055t-.078,6.445q0,.625.039,1.055t.039.742a1.242,1.242,0,0,1-.586,1.094A12.148,12.148,0,0,1,299.3-2.5Zm36.875-40.937a48.661,48.661,0,0,1,3.789-19.18,48.294,48.294,0,0,1,10.469-15.586,49.149,49.149,0,0,1,15.781-10.469,50.564,50.564,0,0,1,19.8-3.828,56.842,56.842,0,0,1,12.422,1.172,47.438,47.438,0,0,1,8.438,2.617,22.908,22.908,0,0,1,4.8,2.656,12.957,12.957,0,0,1,1.523,1.289,25.02,25.02,0,0,1-.352,2.617q-.352,2.148-.781,5t-.781,5.859a45.636,45.636,0,0,0-.352,5.2,1.945,1.945,0,0,1-.234.859q-.234.469-1.25.469a8.728,8.728,0,0,1-2.734-.664q-1.8-.664-4.414-1.445T377.3-63.008a39.426,39.426,0,0,0-7.539-.664,22.7,22.7,0,0,0-9.3,1.836,21.134,21.134,0,0,0-7.109,5.078,22.544,22.544,0,0,0-4.57,7.7,28.188,28.188,0,0,0-1.6,9.609,22.58,22.58,0,0,0,1.68,9.18,16.914,16.914,0,0,0,4.492,6.172,17.742,17.742,0,0,0,6.484,3.477,26.953,26.953,0,0,0,7.734,1.094,36.082,36.082,0,0,0,9.453-1.289,39.848,39.848,0,0,0,8.984-3.633,1.625,1.625,0,0,1,.625-.078.626.626,0,0,1,.586.391,3.769,3.769,0,0,1,.2,1.484V-16.6q0,3.555-.039,6.8T387.266-4.3a12.479,12.479,0,0,1-.156,2.266,27.781,27.781,0,0,1-6.094,3.047,48.864,48.864,0,0,1-6.758,1.875,53.03,53.03,0,0,1-6.992.938q-3.516.234-6.8.234a46.875,46.875,0,0,1-17.031-3.047,41.082,41.082,0,0,1-13.711-8.594,40.178,40.178,0,0,1-9.18-13.32A42.979,42.979,0,0,1,317.188-38.125ZM464.922-63.594l-3.672-.352q-2.031-.2-4.3-.2a42.945,42.945,0,0,0-6.992.586,19.918,19.918,0,0,0-6.6,2.3,16.414,16.414,0,0,0-5.234,4.727,16.712,16.712,0,0,0-2.812,7.773q-.547,5.781-.9,9.492t-.508,6.094q-.156,2.383-.273,3.828t-.2,2.7q0,.313-.117,1.719t-.352,3.281q-.234,1.875-.43,4.063t-.43,4.063q-.234,1.875-.352,3.281t-.117,1.719q0,.625.039,1.055t.039.82a1.273,1.273,0,0,1-.586,1.055,9.307,9.307,0,0,1-2.617.977l-20.7,7.422q-.859.312-2.266.781a8.624,8.624,0,0,1-2.734.469,3.37,3.37,0,0,1-1.914-.547,2.085,2.085,0,0,1-.82-1.875L406.8-75.781a16.5,16.5,0,0,1,.586-3.555,2.175,2.175,0,0,1,1.758-1.289q7.109-1.406,14.688-2.852a126.179,126.179,0,0,0,14.688-3.711q.625,0,.742.2a1.162,1.162,0,0,1,.117.586,4.147,4.147,0,0,1-.039.469q-.039.313-.234,1.406t-.547,3.32q-.352,2.227-.977,6.211a56.168,56.168,0,0,1,7.93-5.156,74.406,74.406,0,0,1,8.711-4.023,67.841,67.841,0,0,1,8.438-2.656,30.96,30.96,0,0,1,7.109-.977Zm51.641-23.594a31.984,31.984,0,0,1,13.477,2.773,34.577,34.577,0,0,1,10.391,7.188,32.021,32.021,0,0,1,6.68,9.883,27.572,27.572,0,0,1,2.344,10.938,18.6,18.6,0,0,1-2.969,9.727,30.75,30.75,0,0,1-8.32,8.789,45.184,45.184,0,0,1-12.852,6.328,53.409,53.409,0,0,1-16.484,2.422,55.072,55.072,0,0,1-9.844-.937,12.126,12.126,0,0,0,1.953,5.781,13.739,13.739,0,0,0,4.141,3.984,18.624,18.624,0,0,0,5.664,2.3,28.471,28.471,0,0,0,6.523.742,38.446,38.446,0,0,0,7.227-.664,49.226,49.226,0,0,0,6.68-1.758q3.2-1.094,6.172-2.422t5.625-2.656q.7-.156,1.211-.273a4.341,4.341,0,0,1,.977-.117l-.039,1.25q-.039,1.25-.039,3.516t-.039,5.469q-.039,3.2-.117,7.109a2.455,2.455,0,0,1,.313.781,3.363,3.363,0,0,1,.078.625q0,.938-1.719,2.031A30.993,30.993,0,0,1,539.1-2.109,66.9,66.9,0,0,1,532.773.156q-3.555,1.094-7.227,1.992t-7.109,1.406a41.837,41.837,0,0,1-6.016.508,46.863,46.863,0,0,1-16.367-2.93,43.64,43.64,0,0,1-14.062-8.4,40.826,40.826,0,0,1-9.8-13.281,40.831,40.831,0,0,1-3.672-17.578,51.962,51.962,0,0,1,3.516-19.18,47.2,47.2,0,0,1,9.883-15.586,46.319,46.319,0,0,1,15.2-10.469A48.382,48.382,0,0,1,516.563-87.187Zm-.937,20.781a12.85,12.85,0,0,0-5.9,1.367,16.463,16.463,0,0,0-4.922,3.906,25.163,25.163,0,0,0-3.867,6.094,41.46,41.46,0,0,0-2.656,7.852,124.507,124.507,0,0,0,13.359-2.969,52.973,52.973,0,0,0,8.516-3.164,14.1,14.1,0,0,0,4.531-3.2,4.915,4.915,0,0,0,1.328-3.086,4.058,4.058,0,0,0-1.055-2.656,10.351,10.351,0,0,0-2.617-2.187,13.635,13.635,0,0,0-3.4-1.445A12.575,12.575,0,0,0,515.625-66.406ZM638.984-15.7a2.423,2.423,0,0,0-.078.586v.508a7.418,7.418,0,0,0,.625,3.242A8.949,8.949,0,0,0,640.9-9.258a12.686,12.686,0,0,0,1.367,1.328q.625.508.625.9,0,1.094-2.344,2.031L619.531,3.984a1.039,1.039,0,0,1-.547.078q-.625,0-1.25-1.094A16.851,16.851,0,0,1,616.523.2q-.586-1.68-1.094-3.594t-.9-3.555a32.048,32.048,0,0,1-10.625,8.359,26.656,26.656,0,0,1-11.328,2.656,30.219,30.219,0,0,1-12.812-2.891A34.284,34.284,0,0,1,568.672-7.07,41.134,41.134,0,0,1,560.9-20a46.919,46.919,0,0,1-2.93-17.031,61.116,61.116,0,0,1,3.242-20.391A50.7,50.7,0,0,1,570-73.281a39.424,39.424,0,0,1,12.93-10.273,35.017,35.017,0,0,1,15.664-3.633A26.466,26.466,0,0,1,609.688-84.8a47.076,47.076,0,0,1,9.922,6.133,28.128,28.128,0,0,0,.547-3.75,8.294,8.294,0,0,1,.352-2.187,1.639,1.639,0,0,1,1.055-1.055,11.7,11.7,0,0,1,2.578-.43q5.625-.781,11.211-1.445t11.68-.977ZM615.625-45.156a81.284,81.284,0,0,0,1.055-8.4q.273-3.945.43-7.227-1.25-.937-2.7-1.953a30.216,30.216,0,0,0-3.125-1.914,18.835,18.835,0,0,0-3.516-1.445,13.477,13.477,0,0,0-3.867-.547,9.818,9.818,0,0,0-7.07,2.734,20.817,20.817,0,0,0-4.609,6.719,35.116,35.116,0,0,0-2.5,8.438,48.634,48.634,0,0,0-.742,7.891q0,12.344,3.242,18.086t9.023,5.742a12.714,12.714,0,0,0,5.234-1.328,29.235,29.235,0,0,0,5.859-3.672Zm83.2-15.078q-1.094,8.2-2.07,16.367t-1.211,15.273a23.078,23.078,0,0,0,.469,5.078,8.306,8.306,0,0,0,1.367,3.2,5.117,5.117,0,0,0,2.148,1.68,7.414,7.414,0,0,0,2.813.508,22.674,22.674,0,0,0,5.469-.742,47.627,47.627,0,0,0,5.938-1.914,16.119,16.119,0,0,1,1.6-.586,4.128,4.128,0,0,1,1.133-.2,1.035,1.035,0,0,1,1.055.7,13.341,13.341,0,0,1,.547,2.461q.273,1.758.82,4.727t1.8,7.5q.078.391.117.664a3.6,3.6,0,0,1,.039.508,1.655,1.655,0,0,1-.82,1.563,16.3,16.3,0,0,1-2.7,1.094q-3.2,1.094-6.758,2.227t-7.031,2.07q-3.477.938-6.68,1.523a31.756,31.756,0,0,1-5.625.586q-13.047,0-19.023-6.484T666.25-22.187q0-2.266.156-4.648T666.8-31.8q.781-7.812,1.367-14.8T669.375-60h-8.2a37.014,37.014,0,0,1-6.094-.352Q653.2-60.7,653.2-61.8a5.768,5.768,0,0,1,.781-1.68q.781-1.367,1.992-3.281t2.617-4.1q1.406-2.187,2.7-4.1t2.227-3.32q.938-1.406,1.172-1.719h5.547q.7-5.938,1.133-9.961t.7-6.68q.273-2.656.508-4.1a11.4,11.4,0,0,1,.508-2.148,1.523,1.523,0,0,1,.7-.9,5.892,5.892,0,0,1,1.133-.352q3.516-.7,6.8-1.289t6.563-1.211q3.281-.625,6.68-1.445t7.07-1.914a.813.813,0,0,0,.313-.039.813.813,0,0,1,.313-.039q.938,0,.938.625v.156q-.391,4.3-1.211,11.953T700.547-80h20.938a2.024,2.024,0,0,1,1.211.43,1.674,1.674,0,0,1,.586,1.445,15.327,15.327,0,0,1-.937,2.813q-.937,2.422-2.656,6.328l-2.812,6.328a5.591,5.591,0,0,1-1.133,1.719,4.207,4.207,0,0,1-2.383.7Zm32.891,27.109q1.016-10.7,2.031-21.172t1.8-21.484a14.691,14.691,0,0,1,.508-3.555,2.175,2.175,0,0,1,1.758-1.289q6.641-1.328,13.906-2.773a115.975,115.975,0,0,0,14.063-3.711,2.37,2.37,0,0,1,.7-.078q.859,0,.859.625l-7.031,76.094a19.248,19.248,0,0,1-.547,3.555,2.071,2.071,0,0,1-1.719,1.289q-6.641,2.031-13.437,4.531T730.234,3.984a2.37,2.37,0,0,1-.7.078q-.859,0-.859-.781,0-.078.156-2.109t.43-5.234q.273-3.2.586-7.187t.664-7.969q.352-3.984.664-7.656T731.719-33.125Zm5.859-62.344q.234-3.359.352-5.156t.2-2.7q.078-.9.078-1.133a1.184,1.184,0,0,1,.039-.352,2.763,2.763,0,0,0,.078-.469q.039-.352.117-1.484t.234-3.32q.156-2.188.469-6.016a14.691,14.691,0,0,1,.508-3.555,2.175,2.175,0,0,1,1.758-1.289q6.641-1.328,13.906-2.773a115.975,115.975,0,0,0,14.063-3.711,2.371,2.371,0,0,1,.7-.078,1.216,1.216,0,0,0,.625.625l.234.156-1.719,21.406a17.318,17.318,0,0,1-.586,3.594,1.954,1.954,0,0,1-1.68,1.25q-6.641,1.25-13.437,2.734t-14.375,2.969a2.37,2.37,0,0,1-.7.078Q737.578-94.687,737.578-95.469Zm97.344,9.063a1.159,1.159,0,0,1,1.172-.781,1.284,1.284,0,0,1,.313.039,1.284,1.284,0,0,0,.313.039A90.593,90.593,0,0,0,848.75-83.4q6.172,1.445,12.266,2.773a1.632,1.632,0,0,1,1.484,1.719,8.826,8.826,0,0,1-.937,3.125L829.375-7.344q-.625,1.406-1.094,2.266a8.212,8.212,0,0,1-.937,1.406,2.81,2.81,0,0,1-1.016.781A6.773,6.773,0,0,1,825-2.5Q819.063-1.328,812.969.2T800.313,3.984a.544.544,0,0,0-.234.039.347.347,0,0,1-.156.039h-.547a.782.782,0,0,1-.625-.273,1.578,1.578,0,0,1-.312-.508q-1.172-3.359-2.7-8.672t-3.32-11.875q-1.8-6.562-3.75-13.984t-3.984-15.078q-2.031-7.656-4.023-15.2T776.8-75.781a14.469,14.469,0,0,1-.7-3.437,1.4,1.4,0,0,1,1.25-1.406Q783.438-81.953,790-83.4a85.22,85.22,0,0,0,12.422-3.711,2.37,2.37,0,0,1,.7-.078q1.016,0,1.094.781l10.313,52.5q.391-.937,1.328-3.4t2.266-5.9q1.328-3.438,2.93-7.578t3.281-8.437q1.68-4.3,3.32-8.555t3.086-7.93q1.445-3.672,2.539-6.484Zm75.7-.781A31.984,31.984,0,0,1,924.1-84.414a34.577,34.577,0,0,1,10.391,7.188,32.021,32.021,0,0,1,6.68,9.883,27.572,27.572,0,0,1,2.344,10.938,18.6,18.6,0,0,1-2.969,9.727,30.75,30.75,0,0,1-8.32,8.789,45.184,45.184,0,0,1-12.852,6.328,53.409,53.409,0,0,1-16.484,2.422,55.072,55.072,0,0,1-9.844-.937A12.126,12.126,0,0,0,895-24.3a13.739,13.739,0,0,0,4.141,3.984,18.625,18.625,0,0,0,5.664,2.3,28.471,28.471,0,0,0,6.523.742,38.446,38.446,0,0,0,7.227-.664,49.226,49.226,0,0,0,6.68-1.758q3.2-1.094,6.172-2.422t5.625-2.656q.7-.156,1.211-.273a4.341,4.341,0,0,1,.977-.117l-.039,1.25q-.039,1.25-.039,3.516t-.039,5.469q-.039,3.2-.117,7.109a2.455,2.455,0,0,1,.313.781,3.363,3.363,0,0,1,.078.625q0,.938-1.719,2.031a30.993,30.993,0,0,1-4.492,2.266A66.9,66.9,0,0,1,926.836.156q-3.555,1.094-7.227,1.992T912.5,3.555a41.837,41.837,0,0,1-6.016.508,46.863,46.863,0,0,1-16.367-2.93,43.641,43.641,0,0,1-14.062-8.4,40.826,40.826,0,0,1-9.8-13.281,40.831,40.831,0,0,1-3.672-17.578,51.962,51.962,0,0,1,3.516-19.18,47.2,47.2,0,0,1,9.883-15.586,46.319,46.319,0,0,1,15.2-10.469A48.383,48.383,0,0,1,910.625-87.187Zm-.937,20.781a12.85,12.85,0,0,0-5.9,1.367,16.463,16.463,0,0,0-4.922,3.906A25.163,25.163,0,0,0,895-55.039a41.457,41.457,0,0,0-2.656,7.852A124.511,124.511,0,0,0,905.7-50.156a52.973,52.973,0,0,0,8.516-3.164,14.1,14.1,0,0,0,4.531-3.2,4.915,4.915,0,0,0,1.328-3.086,4.058,4.058,0,0,0-1.055-2.656,10.351,10.351,0,0,0-2.617-2.187,13.635,13.635,0,0,0-3.4-1.445A12.575,12.575,0,0,0,909.688-66.406Z" transform="translate(-9.063 127.5)" fill="#e81841"/>
</svg>
